<svg xmlns="http://www.w3.org/2000/svg" version="1.1" xmlns:xlink="http://www.w3.org/1999/xlink" xmlns:svgjs="http://svgjs.dev/svgjs" width="2000" height="232" viewBox="0 0 2000 232"><g transform="matrix(1,0,0,1,-1.2121212121212466,0.23221911836063214)"><svg viewBox="0 0 396 46" data-background-color="#ffffff" preserveAspectRatio="xMidYMid meet" height="232" width="2000" xmlns="http://www.w3.org/2000/svg" xmlns:xlink="http://www.w3.org/1999/xlink"><g id="tight-bounds" transform="matrix(1,0,0,1,0.2400000000000091,-0.04604344588184972)"><svg viewBox="0 0 395.52 46.09208689176369" height="46.09208689176369" width="395.52"><g><svg viewBox="0 0 581.359874504228 67.74901357967666" height="46.09208689176369" width="395.52"><g><rect width="6.079279563778364" height="67.74901357967666" x="163.84625053265285" y="0" fill="#528265" opacity="1" stroke-width="0" stroke="transparent" fill-opacity="1" class="rect-qz-0" data-fill-palette-color="primary" rx="1%" id="qz-0" data-palette-color="#528265"></rect></g><g transform="matrix(1,0,0,1,185.83987450422796,0.16852988452655637)"><svg viewBox="0 0 395.52 67.41195381062354" height="67.41195381062354" width="395.52"><g id="textblocktransform"><svg viewBox="0 0 395.52 67.41195381062354" height="67.41195381062354" width="395.52" id="textblock"><g><svg viewBox="0 0 395.52 67.41195381062354" height="67.41195381062354" width="395.52"><g transform="matrix(1,0,0,1,0,0)"><svg width="395.52" viewBox="1.55 -36.35 216.48 36.900000000000006" height="67.41195381062354" data-palette-color="#528265"><path d="M29.8-25L29.8-25 22.9-25Q22.55-30.45 15.4-30.45L15.4-30.45Q12.55-30.45 10.88-29.3 9.2-28.15 9.2-26.2L9.2-26.2Q9.2-24.3 10.6-23.35 12-22.4 16-21.65L16-21.65 21.6-20.6Q26.55-19.65 28.8-17.35 31.05-15.05 31.05-10.85L31.05-10.85Q31.05-5.1 26.65-2.1L26.65-2.1Q22.85 0.55 16.4 0.55L16.4 0.55Q9.05 0.55 5.2-2.85L5.2-2.85Q1.85-5.8 1.55-11.05L1.55-11.05 8.7-11.05Q9.1-5.35 16.75-5.35L16.75-5.35Q20.15-5.35 22.08-6.58 24-7.8 24-9.95L24-9.95Q24-12.05 22.48-13.2 20.95-14.35 17.25-15.05L17.25-15.05 12.25-16Q6.8-17 4.48-19.18 2.15-21.35 2.15-25.45L2.15-25.45Q2.15-31 6.2-33.85L6.2-33.85Q9.7-36.35 15.7-36.35L15.7-36.35Q22.95-36.35 26.6-33.05L26.6-33.05Q29.75-30.15 29.8-25ZM35.95-26.5L42.85-26.5 42.85 0 35.95 0 35.95-26.5ZM39.35-35.6L39.35-35.6Q40.7-35.6 41.62-34.65 42.55-33.7 42.55-32.35L42.55-32.35Q42.55-31 41.62-30.08 40.7-29.15 39.35-29.15L39.35-29.15Q38-29.15 37.05-30.08 36.1-31 36.1-32.35L36.1-32.35Q36.1-33.7 37.05-34.65 38-35.6 39.35-35.6ZM66.3-35.8L73.2-35.8 73.2 0 66.3 0 66.3-2.95Q63.9 0.55 59.05 0.55L59.05 0.55Q53.8 0.55 50.6-3.85L50.6-3.85Q47.85-7.6 47.85-13.2L47.85-13.2Q47.85-19.85 51.35-23.7L51.35-23.7Q54.4-27.05 59-27.05L59-27.05Q63.84-27.05 66.3-23.35L66.3-23.35 66.3-35.8ZM60.55-21.4L60.55-21.4Q57.95-21.4 56.35-19.15 54.75-16.9 54.75-13.25L54.75-13.25Q54.75-9.65 56.32-7.43 57.9-5.2 60.55-5.2L60.55-5.2Q63.2-5.2 64.77-7.4 66.34-9.6 66.34-13.25L66.34-13.25Q66.34-16.95 64.75-19.18 63.15-21.4 60.55-21.4ZM96.49-35.8L103.39-35.8 103.39 0 96.49 0 96.49-2.95Q94.09 0.55 89.24 0.55L89.24 0.55Q83.99 0.55 80.79-3.85L80.79-3.85Q78.04-7.6 78.04-13.2L78.04-13.2Q78.04-19.85 81.54-23.7L81.54-23.7Q84.59-27.05 89.19-27.05L89.19-27.05Q94.04-27.05 96.49-23.35L96.49-23.35 96.49-35.8ZM90.74-21.4L90.74-21.4Q88.14-21.4 86.54-19.15 84.94-16.9 84.94-13.25L84.94-13.25Q84.94-9.65 86.52-7.43 88.09-5.2 90.74-5.2L90.74-5.2Q93.39-5.2 94.97-7.4 96.54-9.6 96.54-13.25L96.54-13.25Q96.54-16.95 94.94-19.18 93.34-21.4 90.74-21.4ZM109.89 0L109.89-35.8 116.79-35.8 116.79-22.75Q119.59-27.05 124.54-27.05L124.54-27.05Q128.04-27.05 130.44-25L130.44-25Q133.19-22.75 133.19-17.85L133.19-17.85 133.19 0 126.29 0 126.29-16.45Q126.29-21.2 122.09-21.2L122.09-21.2Q119.74-21.2 118.27-19.75 116.79-18.3 116.79-16L116.79-16 116.79 0 109.89 0ZM162.54-11.45L162.54-11.45 144.74-11.45Q144.89-8.25 145.74-6.9L145.74-6.9Q147.19-4.7 150.29-4.7L150.29-4.7Q154.14-4.7 155.44-7.9L155.44-7.9 162.24-7.9Q161.09-4 157.76-1.73 154.44 0.55 149.99 0.55L149.99 0.55Q143.94 0.55 140.69-3.5L140.69-3.5Q137.84-7.05 137.84-12.85L137.84-12.85Q137.84-19.9 141.54-23.75L141.54-23.75Q144.79-27.05 150.09-27.05L150.09-27.05Q154.14-27.05 157.19-25.05 160.24-23.05 161.54-19.45L161.54-19.45Q162.59-16.65 162.59-12.7L162.59-12.7Q162.59-12.2 162.54-11.45ZM144.84-16L155.39-16Q154.89-21.8 150.04-21.8L150.04-21.8Q145.49-21.8 144.84-16L144.84-16ZM189.49-18.7L189.49-18.7 182.49-18.7Q182.44-20.3 181.34-20.98 180.24-21.65 177.54-21.65L177.54-21.65Q173.59-21.65 173.59-19.35L173.59-19.35Q173.59-18 175.99-17.35L175.99-17.35 184.69-14.9Q189.89-13.45 189.89-8.3L189.89-8.3Q189.89-4.25 186.74-1.75L186.74-1.75Q183.79 0.55 178.24 0.55L178.24 0.55Q171.44 0.55 168.49-1.45L168.49-1.45Q165.59-3.35 165.39-7.6L165.39-7.6 172.24-7.6Q172.54-5.95 173.66-5.4 174.79-4.85 177.84-4.85L177.84-4.85Q182.99-4.85 182.99-7.3L182.99-7.3Q182.99-8.75 180.69-9.45L180.69-9.45 172.49-11.95Q169.34-12.9 168.19-14.15L168.19-14.15Q166.69-15.7 166.69-18.35L166.69-18.35Q166.69-22.7 169.99-25.05L169.99-25.05Q172.89-27.05 177.59-27.05L177.59-27.05Q183.29-27.05 186.59-24.5L186.59-24.5Q189.44-22.25 189.49-18.7ZM194.73 0L194.73-35.8 201.63-35.8 201.63-22.75Q204.43-27.05 209.38-27.05L209.38-27.05Q212.88-27.05 215.28-25L215.28-25Q218.03-22.75 218.03-17.85L218.03-17.85 218.03 0 211.13 0 211.13-16.45Q211.13-21.2 206.93-21.2L206.93-21.2Q204.58-21.2 203.11-19.75 201.63-18.3 201.63-16L201.63-16 201.63 0 194.73 0Z" opacity="1" transform="matrix(1,0,0,1,0,0)" fill="#528265" class="wordmark-text-0" data-fill-palette-color="primary" id="text-0"></path></svg></g></svg></g></svg></g></svg></g><g transform="matrix(1,0,0,1,0,0.16852988452655637)"><svg viewBox="0 0 147.93190612485608 67.41195381062354" height="67.41195381062354" width="147.93190612485608"><g><svg xmlns="http://www.w3.org/2000/svg" xmlns:xlink="http://www.w3.org/1999/xlink" version="1.1" x="0" y="0" viewBox="5 29.49387475885969 90 41.012625348283166" enable-background="new 0 0 100 100" xml:space="preserve" height="67.41195381062354" width="147.93190612485608" class="icon-icon-0" data-fill-palette-color="accent" id="icon-0"><g fill="#adff2f" data-fill-palette-color="accent"><path d="M23.943 30.807L5 50.001l18.942 19.192c1.728 1.751 4.53 1.751 6.258 0.002 1.729-1.75 1.73-4.587 0.002-6.338L18.193 50.695l-3.624 2.289 15.634-15.841c0.864-0.875 1.295-2.021 1.295-3.168 0-1.147-0.433-2.295-1.297-3.17C28.473 29.056 25.671 29.057 23.943 30.807z" fill="#adff2f" data-fill-palette-color="accent"></path><path d="M76.057 30.808L95 50.001 76.058 69.193c-1.728 1.751-4.53 1.751-6.258 0.002-1.729-1.75-1.73-4.587-0.002-6.338l12.009-12.161 3.624 2.289L69.796 37.144c-0.864-0.875-1.295-2.021-1.295-3.168 0-1.147 0.433-2.295 1.297-3.17C71.527 29.056 74.329 29.057 76.057 30.808z" fill="#adff2f" data-fill-palette-color="accent"></path><path d="M60.899 32.352c-0.419-1.068-1.241-1.978-2.366-2.476-2.249-0.997-4.857 0.028-5.825 2.288l-13.82 32.062c-0.484 1.13-0.467 2.355-0.048 3.422 0.419 1.068 1.241 1.978 2.366 2.476 2.249 0.997 4.857-0.028 5.825-2.288l13.82-32.062C61.335 34.644 61.318 33.419 60.899 32.352z" fill="#adff2f" data-fill-palette-color="accent"></path></g></svg></g></svg></g></svg></g><defs></defs></svg><rect width="395.52" height="46.09208689176369" fill="none" stroke="none" visibility="hidden"></rect></g></svg></g></svg>